<mxfile host="Electron" modified="2023-05-30T16:57:56.431Z" agent="Mozilla/5.0 (Windows NT 10.0; Win64; x64) AppleWebKit/537.36 (KHTML, like Gecko) draw.io/21.2.8 Chrome/112.0.5615.165 Electron/24.2.0 Safari/537.36" etag="ZeVuvdBVm95hKzosxASf" version="21.2.8" type="device">
  <diagram name="PÃ¡gina-1" id="lDwHkSur9uy2TGZwMG80">
    <mxGraphModel dx="1036" dy="614" grid="1" gridSize="10" guides="1" tooltips="1" connect="1" arrows="1" fold="1" page="1" pageScale="1" pageWidth="827" pageHeight="1169" math="0" shadow="0">
      <root>
        <mxCell id="0" />
        <mxCell id="1" parent="0" />
        <mxCell id="fPtMUDhMRRUA6EGS8jkj-1" value="&lt;font style=&quot;font-size: 18px;&quot;&gt;&lt;u&gt;:Sistema&lt;/u&gt;&lt;/font&gt;" style="rounded=0;whiteSpace=wrap;html=1;" parent="1" vertex="1">
          <mxGeometry x="320" y="200" width="120" height="60" as="geometry" />
        </mxCell>
        <mxCell id="fPtMUDhMRRUA6EGS8jkj-2" value="" style="endArrow=none;html=1;rounded=0;entryX=0;entryY=0.5;entryDx=0;entryDy=0;" parent="1" target="fPtMUDhMRRUA6EGS8jkj-1" edge="1">
          <mxGeometry width="50" height="50" relative="1" as="geometry">
            <mxPoint x="30" y="230" as="sourcePoint" />
            <mxPoint x="540" y="300" as="targetPoint" />
          </mxGeometry>
        </mxCell>
        <mxCell id="fPtMUDhMRRUA6EGS8jkj-3" value="&lt;font style=&quot;font-size: 14px;&quot;&gt;altaOferta(oferta : DtOferta) : bool&lt;/font&gt;" style="text;html=1;strokeColor=none;fillColor=none;align=center;verticalAlign=middle;whiteSpace=wrap;rounded=0;" parent="1" vertex="1">
          <mxGeometry x="20" y="170" width="290" height="30" as="geometry" />
        </mxCell>
        <mxCell id="fPtMUDhMRRUA6EGS8jkj-4" value="" style="endArrow=classic;html=1;rounded=0;" parent="1" edge="1">
          <mxGeometry width="50" height="50" relative="1" as="geometry">
            <mxPoint x="120" y="210" as="sourcePoint" />
            <mxPoint x="210" y="210" as="targetPoint" />
          </mxGeometry>
        </mxCell>
        <mxCell id="fPtMUDhMRRUA6EGS8jkj-5" value="&lt;font style=&quot;font-size: 18px;&quot;&gt;&lt;u&gt;o:OfertaLaboral&lt;/u&gt;&lt;/font&gt;" style="rounded=0;whiteSpace=wrap;html=1;" parent="1" vertex="1">
          <mxGeometry x="810" y="200" width="130" height="60" as="geometry" />
        </mxCell>
        <mxCell id="fPtMUDhMRRUA6EGS8jkj-6" value="" style="endArrow=none;html=1;rounded=0;exitX=1;exitY=0.5;exitDx=0;exitDy=0;entryX=0;entryY=0.5;entryDx=0;entryDy=0;" parent="1" source="fPtMUDhMRRUA6EGS8jkj-1" target="fPtMUDhMRRUA6EGS8jkj-5" edge="1">
          <mxGeometry width="50" height="50" relative="1" as="geometry">
            <mxPoint x="550" y="320" as="sourcePoint" />
            <mxPoint x="600" y="270" as="targetPoint" />
          </mxGeometry>
        </mxCell>
        <mxCell id="fPtMUDhMRRUA6EGS8jkj-7" value="&lt;font style=&quot;font-size: 14px;&quot;&gt;1 : o := create(oferta : DtOfertaLite)&lt;/font&gt;" style="text;html=1;strokeColor=none;fillColor=none;align=center;verticalAlign=middle;whiteSpace=wrap;rounded=0;" parent="1" vertex="1">
          <mxGeometry x="480" y="120" width="240" height="30" as="geometry" />
        </mxCell>
        <mxCell id="fPtMUDhMRRUA6EGS8jkj-8" value="" style="endArrow=classic;html=1;rounded=0;" parent="1" edge="1">
          <mxGeometry width="50" height="50" relative="1" as="geometry">
            <mxPoint x="560" y="160" as="sourcePoint" />
            <mxPoint x="660" y="160" as="targetPoint" />
          </mxGeometry>
        </mxCell>
        <mxCell id="fPtMUDhMRRUA6EGS8jkj-9" value="" style="rounded=0;whiteSpace=wrap;html=1;" parent="1" vertex="1">
          <mxGeometry x="820" y="40" width="120" height="60" as="geometry" />
        </mxCell>
        <mxCell id="fPtMUDhMRRUA6EGS8jkj-10" value="&lt;font style=&quot;font-size: 18px;&quot;&gt;&lt;u&gt;:OfertaLaboral&lt;/u&gt;&lt;/font&gt;" style="rounded=0;whiteSpace=wrap;html=1;" parent="1" vertex="1">
          <mxGeometry x="810" y="50" width="120" height="60" as="geometry" />
        </mxCell>
        <mxCell id="fPtMUDhMRRUA6EGS8jkj-12" value="" style="endArrow=none;html=1;rounded=0;exitX=0;exitY=0.5;exitDx=0;exitDy=0;entryX=0.5;entryY=0;entryDx=0;entryDy=0;" parent="1" source="fPtMUDhMRRUA6EGS8jkj-10" target="fPtMUDhMRRUA6EGS8jkj-1" edge="1">
          <mxGeometry width="50" height="50" relative="1" as="geometry">
            <mxPoint x="430" y="380" as="sourcePoint" />
            <mxPoint x="380" y="260" as="targetPoint" />
            <Array as="points">
              <mxPoint x="380" y="80" />
            </Array>
          </mxGeometry>
        </mxCell>
        <mxCell id="fPtMUDhMRRUA6EGS8jkj-13" value="&lt;font style=&quot;font-size: 14px;&quot;&gt;2 : add(o)&lt;/font&gt;" style="text;html=1;strokeColor=none;fillColor=none;align=center;verticalAlign=middle;whiteSpace=wrap;rounded=0;" parent="1" vertex="1">
          <mxGeometry x="500" y="10" width="170" height="30" as="geometry" />
        </mxCell>
        <mxCell id="fPtMUDhMRRUA6EGS8jkj-14" value="" style="endArrow=classic;html=1;rounded=0;" parent="1" edge="1">
          <mxGeometry width="50" height="50" relative="1" as="geometry">
            <mxPoint x="540" y="50" as="sourcePoint" />
            <mxPoint x="630" y="50" as="targetPoint" />
          </mxGeometry>
        </mxCell>
        <mxCell id="fPtMUDhMRRUA6EGS8jkj-20" value="" style="rounded=0;whiteSpace=wrap;html=1;" parent="1" vertex="1">
          <mxGeometry x="825" y="340" width="120" height="60" as="geometry" />
        </mxCell>
        <mxCell id="fPtMUDhMRRUA6EGS8jkj-21" value="&lt;font style=&quot;font-size: 18px;&quot;&gt;&lt;u&gt;:Asignatura&lt;/u&gt;&lt;/font&gt;" style="rounded=0;whiteSpace=wrap;html=1;" parent="1" vertex="1">
          <mxGeometry x="815" y="350" width="120" height="60" as="geometry" />
        </mxCell>
        <mxCell id="fPtMUDhMRRUA6EGS8jkj-23" value="" style="endArrow=none;html=1;rounded=0;entryX=0.85;entryY=1.01;entryDx=0;entryDy=0;exitX=0;exitY=0.5;exitDx=0;exitDy=0;entryPerimeter=0;" parent="1" source="fPtMUDhMRRUA6EGS8jkj-21" target="fPtMUDhMRRUA6EGS8jkj-1" edge="1">
          <mxGeometry width="50" height="50" relative="1" as="geometry">
            <mxPoint x="810" y="380" as="sourcePoint" />
            <mxPoint x="700" y="230" as="targetPoint" />
            <Array as="points">
              <mxPoint x="420" y="380" />
            </Array>
          </mxGeometry>
        </mxCell>
        <mxCell id="fPtMUDhMRRUA6EGS8jkj-24" value="3* [por cada asignatura en &#39;oferta&#39;] : a := find(codigo : String)" style="text;html=1;strokeColor=none;fillColor=none;align=center;verticalAlign=middle;whiteSpace=wrap;rounded=0;" parent="1" vertex="1">
          <mxGeometry x="420" y="320" width="370" height="30" as="geometry" />
        </mxCell>
        <mxCell id="fPtMUDhMRRUA6EGS8jkj-25" value="" style="endArrow=classic;html=1;rounded=0;" parent="1" edge="1">
          <mxGeometry width="50" height="50" relative="1" as="geometry">
            <mxPoint x="535" y="360" as="sourcePoint" />
            <mxPoint x="635" y="360" as="targetPoint" />
          </mxGeometry>
        </mxCell>
        <mxCell id="fPtMUDhMRRUA6EGS8jkj-26" value="&lt;font style=&quot;font-size: 14px;&quot;&gt;4* : linkearAsignatura(a)&lt;/font&gt;" style="text;html=1;strokeColor=none;fillColor=none;align=center;verticalAlign=middle;whiteSpace=wrap;rounded=0;" parent="1" vertex="1">
          <mxGeometry x="500" y="165" width="200" height="40" as="geometry" />
        </mxCell>
        <mxCell id="fPtMUDhMRRUA6EGS8jkj-27" value="" style="endArrow=classic;html=1;rounded=0;" parent="1" edge="1">
          <mxGeometry width="50" height="50" relative="1" as="geometry">
            <mxPoint x="555" y="205" as="sourcePoint" />
            <mxPoint x="645" y="205" as="targetPoint" />
          </mxGeometry>
        </mxCell>
        <mxCell id="fPtMUDhMRRUA6EGS8jkj-28" value="" style="endArrow=none;html=1;rounded=0;exitX=1;exitY=0.5;exitDx=0;exitDy=0;" parent="1" source="fPtMUDhMRRUA6EGS8jkj-5" edge="1">
          <mxGeometry width="50" height="50" relative="1" as="geometry">
            <mxPoint x="760" y="240" as="sourcePoint" />
            <mxPoint x="1130" y="230" as="targetPoint" />
          </mxGeometry>
        </mxCell>
        <mxCell id="fPtMUDhMRRUA6EGS8jkj-29" value="" style="rounded=0;whiteSpace=wrap;html=1;" parent="1" vertex="1">
          <mxGeometry x="1140" y="190" width="120" height="60" as="geometry" />
        </mxCell>
        <mxCell id="fPtMUDhMRRUA6EGS8jkj-30" value="&lt;font style=&quot;font-size: 18px;&quot;&gt;&lt;u&gt;:Asignatura&lt;/u&gt;&lt;/font&gt;" style="rounded=0;whiteSpace=wrap;html=1;" parent="1" vertex="1">
          <mxGeometry x="1130" y="200" width="120" height="60" as="geometry" />
        </mxCell>
        <mxCell id="fPtMUDhMRRUA6EGS8jkj-32" value="&lt;font style=&quot;font-size: 14px;&quot;&gt;4*.1 : add(a)&lt;/font&gt;" style="text;html=1;strokeColor=none;fillColor=none;align=center;verticalAlign=middle;whiteSpace=wrap;rounded=0;" parent="1" vertex="1">
          <mxGeometry x="945" y="180" width="170" height="30" as="geometry" />
        </mxCell>
        <mxCell id="fPtMUDhMRRUA6EGS8jkj-33" value="" style="endArrow=classic;html=1;rounded=0;" parent="1" edge="1">
          <mxGeometry width="50" height="50" relative="1" as="geometry">
            <mxPoint x="985" y="219.5" as="sourcePoint" />
            <mxPoint x="1075" y="219.5" as="targetPoint" />
          </mxGeometry>
        </mxCell>
        <mxCell id="fPtMUDhMRRUA6EGS8jkj-34" value="&lt;br&gt;El sistema usa los &#39;codigo&#39; de asignatura que estan dentro del campo &#39;conjAsign&#39; en el DtOferta &#39;oferta&#39;" style="shape=note;whiteSpace=wrap;html=1;backgroundOutline=1;darkOpacity=0.05;fillColor=#fff2cc;strokeColor=#d6b656;" parent="1" vertex="1">
          <mxGeometry x="90" y="280" width="190" height="100" as="geometry" />
        </mxCell>
        <mxCell id="fPtMUDhMRRUA6EGS8jkj-35" value="" style="endArrow=none;dashed=1;html=1;rounded=0;entryX=0.157;entryY=1.013;entryDx=0;entryDy=0;exitX=0.5;exitY=0;exitDx=0;exitDy=0;exitPerimeter=0;entryPerimeter=0;" parent="1" source="fPtMUDhMRRUA6EGS8jkj-34" target="fPtMUDhMRRUA6EGS8jkj-1" edge="1">
          <mxGeometry width="50" height="50" relative="1" as="geometry">
            <mxPoint x="720" y="380" as="sourcePoint" />
            <mxPoint x="770" y="330" as="targetPoint" />
          </mxGeometry>
        </mxCell>
        <mxCell id="fPtMUDhMRRUA6EGS8jkj-36" value="Retorna &#39;true&#39; si todo se realizÃ³ de manera correcta o Â´falseÂ´si hubo algun error" style="shape=note;whiteSpace=wrap;html=1;backgroundOutline=1;darkOpacity=0.05;fillColor=#fff2cc;strokeColor=#d6b656;" parent="1" vertex="1">
          <mxGeometry x="240" y="10" width="130" height="120" as="geometry" />
        </mxCell>
        <mxCell id="fPtMUDhMRRUA6EGS8jkj-37" value="" style="endArrow=none;dashed=1;html=1;rounded=0;exitX=0.25;exitY=0;exitDx=0;exitDy=0;" parent="1" source="fPtMUDhMRRUA6EGS8jkj-1" target="fPtMUDhMRRUA6EGS8jkj-36" edge="1">
          <mxGeometry width="50" height="50" relative="1" as="geometry">
            <mxPoint x="510" y="300" as="sourcePoint" />
            <mxPoint x="560" y="250" as="targetPoint" />
          </mxGeometry>
        </mxCell>
        <mxCell id="fPtMUDhMRRUA6EGS8jkj-40" value="&lt;font style=&quot;font-size: 18px;&quot;&gt;&lt;u&gt;e:Empresa&lt;/u&gt;&lt;/font&gt;" style="rounded=0;whiteSpace=wrap;html=1;" parent="1" vertex="1">
          <mxGeometry x="820" y="470" width="120" height="60" as="geometry" />
        </mxCell>
        <mxCell id="fPtMUDhMRRUA6EGS8jkj-41" value="" style="endArrow=none;html=1;rounded=0;entryX=0;entryY=0.5;entryDx=0;entryDy=0;" parent="1" target="fPtMUDhMRRUA6EGS8jkj-40" edge="1">
          <mxGeometry width="50" height="50" relative="1" as="geometry">
            <mxPoint x="400" y="500" as="sourcePoint" />
            <mxPoint x="660" y="550" as="targetPoint" />
            <Array as="points" />
          </mxGeometry>
        </mxCell>
        <mxCell id="fPtMUDhMRRUA6EGS8jkj-42" value="&lt;font style=&quot;font-size: 18px;&quot;&gt;&lt;u&gt;s:Sucursal&lt;/u&gt;&lt;/font&gt;" style="rounded=0;whiteSpace=wrap;html=1;" parent="1" vertex="1">
          <mxGeometry x="370" y="720" width="120" height="60" as="geometry" />
        </mxCell>
        <mxCell id="fPtMUDhMRRUA6EGS8jkj-43" value="" style="endArrow=none;html=1;rounded=0;exitX=1;exitY=0.5;exitDx=0;exitDy=0;entryX=0.5;entryY=1;entryDx=0;entryDy=0;" parent="1" source="fPtMUDhMRRUA6EGS8jkj-42" target="fPtMUDhMRRUA6EGS8jkj-40" edge="1">
          <mxGeometry width="50" height="50" relative="1" as="geometry">
            <mxPoint x="630" y="710" as="sourcePoint" />
            <mxPoint x="680" y="660" as="targetPoint" />
            <Array as="points">
              <mxPoint x="880" y="750" />
            </Array>
          </mxGeometry>
        </mxCell>
        <mxCell id="fPtMUDhMRRUA6EGS8jkj-44" value="&lt;font style=&quot;font-size: 14px;&quot;&gt;&lt;font style=&quot;border-color: var(--border-color);&quot;&gt;5.2 : linkearSeccionOferta&lt;/font&gt;(o,seccion)&lt;/font&gt;" style="text;html=1;strokeColor=none;fillColor=none;align=center;verticalAlign=middle;whiteSpace=wrap;rounded=0;" parent="1" vertex="1">
          <mxGeometry x="530" y="680" width="270" height="30" as="geometry" />
        </mxCell>
        <mxCell id="fPtMUDhMRRUA6EGS8jkj-45" value="" style="endArrow=classic;html=1;rounded=0;" parent="1" edge="1">
          <mxGeometry width="50" height="50" relative="1" as="geometry">
            <mxPoint x="710" y="725" as="sourcePoint" />
            <mxPoint x="610" y="725" as="targetPoint" />
          </mxGeometry>
        </mxCell>
        <mxCell id="fPtMUDhMRRUA6EGS8jkj-46" value="&lt;font style=&quot;font-size: 14px;&quot;&gt;&lt;font style=&quot;&quot;&gt;5 : linkearSeccionOferta&lt;/font&gt;(o,sucursal,seccion)&lt;/font&gt;" style="text;html=1;strokeColor=none;fillColor=none;align=center;verticalAlign=middle;whiteSpace=wrap;rounded=0;" parent="1" vertex="1">
          <mxGeometry x="445" y="440" width="370" height="30" as="geometry" />
        </mxCell>
        <mxCell id="fPtMUDhMRRUA6EGS8jkj-47" value="" style="endArrow=classic;html=1;rounded=0;" parent="1" edge="1">
          <mxGeometry width="50" height="50" relative="1" as="geometry">
            <mxPoint x="580" y="480" as="sourcePoint" />
            <mxPoint x="670" y="480" as="targetPoint" />
            <Array as="points">
              <mxPoint x="621" y="480" />
            </Array>
          </mxGeometry>
        </mxCell>
        <mxCell id="fPtMUDhMRRUA6EGS8jkj-49" value="&lt;font style=&quot;font-size: 18px;&quot;&gt;&lt;u&gt;se:Seccion&lt;/u&gt;&lt;/font&gt;" style="rounded=0;whiteSpace=wrap;html=1;" parent="1" vertex="1">
          <mxGeometry x="791" y="980" width="120" height="60" as="geometry" />
        </mxCell>
        <mxCell id="fPtMUDhMRRUA6EGS8jkj-50" value="" style="endArrow=none;html=1;rounded=0;entryX=0.5;entryY=1;entryDx=0;entryDy=0;exitX=0;exitY=0.5;exitDx=0;exitDy=0;" parent="1" source="fPtMUDhMRRUA6EGS8jkj-49" target="fPtMUDhMRRUA6EGS8jkj-42" edge="1">
          <mxGeometry width="50" height="50" relative="1" as="geometry">
            <mxPoint x="620" y="830" as="sourcePoint" />
            <mxPoint x="670" y="780" as="targetPoint" />
            <Array as="points">
              <mxPoint x="430" y="1010" />
            </Array>
          </mxGeometry>
        </mxCell>
        <mxCell id="fPtMUDhMRRUA6EGS8jkj-51" value="&lt;font style=&quot;border-color: var(--border-color); font-size: 14px;&quot;&gt;5.2.2 : linkSeccionOferta&lt;/font&gt;(o)" style="text;html=1;strokeColor=none;fillColor=none;align=center;verticalAlign=middle;whiteSpace=wrap;rounded=0;" parent="1" vertex="1">
          <mxGeometry x="500" y="950" width="260" height="30" as="geometry" />
        </mxCell>
        <mxCell id="fPtMUDhMRRUA6EGS8jkj-52" value="" style="endArrow=classic;html=1;rounded=0;" parent="1" edge="1">
          <mxGeometry width="50" height="50" relative="1" as="geometry">
            <mxPoint x="591" y="989.5" as="sourcePoint" />
            <mxPoint x="681" y="989.5" as="targetPoint" />
          </mxGeometry>
        </mxCell>
        <mxCell id="fPtMUDhMRRUA6EGS8jkj-55" value="" style="endArrow=none;html=1;rounded=0;" parent="1" edge="1">
          <mxGeometry width="50" height="50" relative="1" as="geometry">
            <mxPoint x="400" y="500" as="sourcePoint" />
            <mxPoint x="400" y="260" as="targetPoint" />
          </mxGeometry>
        </mxCell>
        <mxCell id="fPtMUDhMRRUA6EGS8jkj-56" value="" style="rounded=0;whiteSpace=wrap;html=1;" parent="1" vertex="1">
          <mxGeometry x="1121" y="970" width="120" height="60" as="geometry" />
        </mxCell>
        <mxCell id="fPtMUDhMRRUA6EGS8jkj-57" value="&lt;font style=&quot;font-size: 18px;&quot;&gt;&lt;u&gt;:OfertaLaboral&lt;/u&gt;&lt;/font&gt;" style="rounded=0;whiteSpace=wrap;html=1;" parent="1" vertex="1">
          <mxGeometry x="1111" y="980" width="120" height="60" as="geometry" />
        </mxCell>
        <mxCell id="fPtMUDhMRRUA6EGS8jkj-59" value="" style="endArrow=none;html=1;rounded=0;entryX=0;entryY=0.5;entryDx=0;entryDy=0;exitX=1;exitY=0.5;exitDx=0;exitDy=0;" parent="1" source="fPtMUDhMRRUA6EGS8jkj-49" target="fPtMUDhMRRUA6EGS8jkj-57" edge="1">
          <mxGeometry width="50" height="50" relative="1" as="geometry">
            <mxPoint x="861" y="960" as="sourcePoint" />
            <mxPoint x="911" y="910" as="targetPoint" />
          </mxGeometry>
        </mxCell>
        <mxCell id="fPtMUDhMRRUA6EGS8jkj-60" value="&lt;font style=&quot;font-size: 14px;&quot;&gt;5.2.2.1 : add(o)&lt;/font&gt;" style="text;html=1;strokeColor=none;fillColor=none;align=center;verticalAlign=middle;whiteSpace=wrap;rounded=0;" parent="1" vertex="1">
          <mxGeometry x="921" y="940" width="200" height="30" as="geometry" />
        </mxCell>
        <mxCell id="fPtMUDhMRRUA6EGS8jkj-61" value="" style="endArrow=classic;html=1;rounded=0;" parent="1" edge="1">
          <mxGeometry width="50" height="50" relative="1" as="geometry">
            <mxPoint x="961" y="979.5" as="sourcePoint" />
            <mxPoint x="1051" y="979.5" as="targetPoint" />
          </mxGeometry>
        </mxCell>
        <mxCell id="pxO26fJ8hDqsdhVdUQhR-1" value="&lt;font style=&quot;font-size: 14px;&quot;&gt;5.2.2.2 : linkearOfertaSeccion(se)&lt;/font&gt;" style="text;html=1;strokeColor=none;fillColor=none;align=center;verticalAlign=middle;whiteSpace=wrap;rounded=0;" parent="1" vertex="1">
          <mxGeometry x="876" y="1070" width="230" height="30" as="geometry" />
        </mxCell>
        <mxCell id="pxO26fJ8hDqsdhVdUQhR-2" value="" style="endArrow=classic;html=1;rounded=0;" parent="1" edge="1">
          <mxGeometry width="50" height="50" relative="1" as="geometry">
            <mxPoint x="935" y="1100" as="sourcePoint" />
            <mxPoint x="1025" y="1100" as="targetPoint" />
          </mxGeometry>
        </mxCell>
        <mxCell id="pxO26fJ8hDqsdhVdUQhR-3" value="&lt;br&gt;Los DtOferta contienen &#39;nroExpediente&#39;, &#39;titulo&#39;, &#39;descripcion&#39;, &#39;cantHorasSem&#39;, &#39;conjAsign&#39;, &#39;salarioMin&#39;,&lt;br&gt;&#39;salarioMax&#39;, &#39;fechaCom&#39;, &#39;fechaFin&#39;, &#39;cantPuest&#39;&lt;br&gt;campos pertenecientes la clase OfertaLaboral" style="shape=note;whiteSpace=wrap;html=1;backgroundOutline=1;darkOpacity=0.05;fillColor=#fff2cc;strokeColor=#d6b656;" parent="1" vertex="1">
          <mxGeometry x="70" y="410" width="300" height="100" as="geometry" />
        </mxCell>
        <mxCell id="pxO26fJ8hDqsdhVdUQhR-4" value="" style="endArrow=none;dashed=1;html=1;rounded=0;entryX=0.5;entryY=1;entryDx=0;entryDy=0;" parent="1" source="pxO26fJ8hDqsdhVdUQhR-3" target="fPtMUDhMRRUA6EGS8jkj-1" edge="1">
          <mxGeometry width="50" height="50" relative="1" as="geometry">
            <mxPoint x="570" y="340" as="sourcePoint" />
            <mxPoint x="620" y="290" as="targetPoint" />
          </mxGeometry>
        </mxCell>
        <mxCell id="oulxoHmJhCP6k_IeSaig-2" value="" style="endArrow=none;html=1;rounded=0;entryX=0.25;entryY=1;entryDx=0;entryDy=0;" edge="1" parent="1" target="fPtMUDhMRRUA6EGS8jkj-40">
          <mxGeometry width="50" height="50" relative="1" as="geometry">
            <mxPoint x="490" y="630" as="sourcePoint" />
            <mxPoint x="790" y="490" as="targetPoint" />
            <Array as="points">
              <mxPoint x="850" y="630" />
            </Array>
          </mxGeometry>
        </mxCell>
        <mxCell id="oulxoHmJhCP6k_IeSaig-3" value="" style="rounded=0;whiteSpace=wrap;html=1;" vertex="1" parent="1">
          <mxGeometry x="370" y="590" width="120" height="60" as="geometry" />
        </mxCell>
        <mxCell id="oulxoHmJhCP6k_IeSaig-4" value="&lt;font style=&quot;font-size: 18px;&quot;&gt;&lt;u&gt;:Sucursal&lt;/u&gt;&lt;/font&gt;" style="rounded=0;whiteSpace=wrap;html=1;" vertex="1" parent="1">
          <mxGeometry x="360" y="600" width="120" height="60" as="geometry" />
        </mxCell>
        <mxCell id="oulxoHmJhCP6k_IeSaig-5" value="&lt;font style=&quot;font-size: 14px;&quot;&gt;5.1 : s := find(sucursal : String)&lt;/font&gt;" style="text;html=1;align=center;verticalAlign=middle;resizable=0;points=[];autosize=1;strokeColor=none;fillColor=none;" vertex="1" parent="1">
          <mxGeometry x="545" y="570" width="210" height="30" as="geometry" />
        </mxCell>
        <mxCell id="oulxoHmJhCP6k_IeSaig-6" value="" style="endArrow=classic;html=1;rounded=0;" edge="1" parent="1">
          <mxGeometry width="50" height="50" relative="1" as="geometry">
            <mxPoint x="706" y="610" as="sourcePoint" />
            <mxPoint x="606" y="610" as="targetPoint" />
          </mxGeometry>
        </mxCell>
        <mxCell id="oulxoHmJhCP6k_IeSaig-7" value="" style="rounded=0;whiteSpace=wrap;html=1;" vertex="1" parent="1">
          <mxGeometry x="801" y="850" width="120" height="60" as="geometry" />
        </mxCell>
        <mxCell id="oulxoHmJhCP6k_IeSaig-8" value="&lt;font style=&quot;font-size: 18px;&quot;&gt;&lt;u&gt;:Seccion&lt;/u&gt;&lt;/font&gt;" style="rounded=0;whiteSpace=wrap;html=1;" vertex="1" parent="1">
          <mxGeometry x="791" y="860" width="120" height="60" as="geometry" />
        </mxCell>
        <mxCell id="oulxoHmJhCP6k_IeSaig-9" value="&lt;font style=&quot;font-size: 14px;&quot;&gt;5.2.1 : se := find(seccion : String)&lt;/font&gt;" style="text;html=1;strokeColor=none;fillColor=none;align=center;verticalAlign=middle;whiteSpace=wrap;rounded=0;" vertex="1" parent="1">
          <mxGeometry x="490" y="830" width="260" height="30" as="geometry" />
        </mxCell>
        <mxCell id="oulxoHmJhCP6k_IeSaig-10" value="" style="endArrow=classic;html=1;rounded=0;" edge="1" parent="1">
          <mxGeometry width="50" height="50" relative="1" as="geometry">
            <mxPoint x="580" y="869.5" as="sourcePoint" />
            <mxPoint x="670" y="869.5" as="targetPoint" />
          </mxGeometry>
        </mxCell>
        <mxCell id="oulxoHmJhCP6k_IeSaig-11" value="" style="endArrow=none;html=1;rounded=0;entryX=0.75;entryY=1;entryDx=0;entryDy=0;exitX=0;exitY=0.5;exitDx=0;exitDy=0;" edge="1" parent="1" source="oulxoHmJhCP6k_IeSaig-8" target="fPtMUDhMRRUA6EGS8jkj-42">
          <mxGeometry width="50" height="50" relative="1" as="geometry">
            <mxPoint x="780" y="770" as="sourcePoint" />
            <mxPoint x="830" y="720" as="targetPoint" />
            <Array as="points">
              <mxPoint x="460" y="890" />
            </Array>
          </mxGeometry>
        </mxCell>
        <mxCell id="oulxoHmJhCP6k_IeSaig-12" value="" style="endArrow=none;html=1;rounded=0;entryX=0.5;entryY=1;entryDx=0;entryDy=0;exitX=0;exitY=0.5;exitDx=0;exitDy=0;" edge="1" parent="1" source="oulxoHmJhCP6k_IeSaig-13" target="fPtMUDhMRRUA6EGS8jkj-49">
          <mxGeometry width="50" height="50" relative="1" as="geometry">
            <mxPoint x="1100" y="1110" as="sourcePoint" />
            <mxPoint x="830" y="930" as="targetPoint" />
            <Array as="points">
              <mxPoint x="850" y="1110" />
            </Array>
          </mxGeometry>
        </mxCell>
        <mxCell id="oulxoHmJhCP6k_IeSaig-13" value="&lt;font style=&quot;font-size: 18px;&quot;&gt;&lt;u&gt;o:OfertaLaboral&lt;/u&gt;&lt;/font&gt;" style="rounded=0;whiteSpace=wrap;html=1;" vertex="1" parent="1">
          <mxGeometry x="1106" y="1080" width="130" height="60" as="geometry" />
        </mxCell>
        <mxCell id="oulxoHmJhCP6k_IeSaig-14" value="El DtOfertaLite tiene los mismos campos que DtOferta pero sin el campo &#39;conjAsign&#39;" style="shape=note;whiteSpace=wrap;html=1;backgroundOutline=1;darkOpacity=0.05;fillColor=#fff2cc;strokeColor=#d6b656;" vertex="1" parent="1">
          <mxGeometry x="70" y="10" width="130" height="120" as="geometry" />
        </mxCell>
        <mxCell id="oulxoHmJhCP6k_IeSaig-15" value="" style="endArrow=none;dashed=1;html=1;dashPattern=1 3;strokeWidth=2;rounded=0;entryX=0.951;entryY=0.995;entryDx=0;entryDy=0;entryPerimeter=0;" edge="1" parent="1" target="oulxoHmJhCP6k_IeSaig-14">
          <mxGeometry width="50" height="50" relative="1" as="geometry">
            <mxPoint x="320" y="200" as="sourcePoint" />
            <mxPoint x="620" y="250" as="targetPoint" />
          </mxGeometry>
        </mxCell>
      </root>
    </mxGraphModel>
  </diagram>
</mxfile>
